<?xml version="1.0" encoding="utf-8"?>
<!-- Generator: Adobe Illustrator 16.0.0, SVG Export Plug-In . SVG Version: 6.00 Build 0)  -->
<!DOCTYPE svg PUBLIC "-//W3C//DTD SVG 1.1//EN" "http://www.w3.org/Graphics/SVG/1.1/DTD/svg11.dtd">
<svg version="1.1" id="Capa_1" xmlns="http://www.w3.org/2000/svg" xmlns:xlink="http://www.w3.org/1999/xlink" x="0px" y="0px"
	 width="308px" height="114px" viewBox="0 0 308 114" enable-background="new 0 0 308 114" xml:space="preserve">
<polygon fill="#D68500" points="233.107,26.116 233.072,36.905 229.816,34.202 229.843,26.116 "/>
<polygon fill="#D68500" points="239.635,26.116 239.576,57.526 236.314,57.526 236.371,26.116 "/>
<polygon fill="#D68500" points="246.163,26.116 246.1,57.526 242.837,57.526 242.899,26.116 "/>
<polygon fill="#D68500" points="252.69,26.116 252.637,42.355 249.373,42.355 249.427,26.116 "/>
<polygon fill="#AEADB3" points="213.815,42.409 213.78,53.198 210.524,50.496 210.551,42.409 "/>
<polygon fill="#AEADB3" points="220.343,42.409 220.293,57.526 217.029,57.526 217.079,42.409 "/>
<polygon fill="#AEADB3" points="226.871,42.409 226.82,57.526 223.557,57.526 223.607,42.409 "/>
<polygon fill="#AEADB3" points="233.398,42.409 233.349,57.526 230.084,57.526 230.135,42.409 "/>
<polygon fill="#AEADB3" points="258.715,42.305 258.665,57.526 255.401,57.526 255.451,42.305 "/>
<polygon fill="#AEADB3" points="265.243,42.305 265.195,57.526 261.929,57.526 261.979,42.305 "/>
<polygon fill="#AEADB3" points="271.771,42.305 271.721,57.526 268.456,57.526 268.507,42.305 "/>
<circle fill-rule="evenodd" clip-rule="evenodd" fill="#AEADB3" cx="222.375" cy="35.617" r="4.951"/>
<circle fill-rule="evenodd" clip-rule="evenodd" fill="#D68500" cx="241.299" cy="19.126" r="4.951"/>
<circle fill-rule="evenodd" clip-rule="evenodd" fill="#AEADB3" cx="260.002" cy="35.409" r="4.951"/>
<polygon fill="#AEADB3" points="252.638,42.34 252.603,53.129 249.347,50.427 249.373,42.34 "/>
<path fill-rule="evenodd" clip-rule="evenodd" fill="#AEADB3" d="M43.09,87.368l-1.417,1.251c-0.498-0.691-1.004-1.036-1.521-1.036
	c-0.251,0-0.457,0.067-0.616,0.201c-0.16,0.135-0.24,0.286-0.24,0.454c0,0.169,0.057,0.328,0.171,0.479
	c0.155,0.2,0.624,0.631,1.405,1.291c0.731,0.609,1.175,0.994,1.33,1.154c0.388,0.392,0.664,0.766,0.826,1.123
	c0.162,0.357,0.243,0.748,0.243,1.172c0,0.824-0.285,1.505-0.856,2.042c-0.57,0.537-1.314,0.806-2.232,0.806
	c-0.717,0-1.341-0.176-1.873-0.526c-0.532-0.351-0.987-0.901-1.366-1.653l1.612-0.971c0.485,0.887,1.043,1.33,1.674,1.33
	c0.329,0,0.605-0.096,0.83-0.286c0.224-0.191,0.336-0.412,0.336-0.663c0-0.228-0.085-0.455-0.254-0.683s-0.542-0.576-1.117-1.045
	c-1.097-0.893-1.805-1.582-2.125-2.066c-0.32-0.485-0.48-0.969-0.48-1.452c0-0.696,0.266-1.294,0.797-1.792
	c0.531-0.499,1.187-0.748,1.966-0.748c0.501,0,0.979,0.116,1.433,0.349C42.07,86.33,42.562,86.753,43.09,87.368z"/>
<path fill-rule="evenodd" clip-rule="evenodd" fill="#AEADB3" d="M53.813,87.625c-0.927,0-1.705,0.323-2.336,0.97
	c-0.631,0.647-0.947,1.469-0.947,2.467c0,1.111,0.397,1.99,1.191,2.637c0.618,0.506,1.326,0.759,2.126,0.759
	c0.903,0,1.673-0.328,2.309-0.984c0.636-0.655,0.954-1.464,0.954-2.425c0-0.957-0.32-1.767-0.961-2.429
	C55.508,87.956,54.729,87.625,53.813,87.625z M53.84,85.749c1.421,0,2.644,0.515,3.667,1.544c1.022,1.029,1.534,2.284,1.534,3.765
	c0,1.467-0.505,2.708-1.514,3.724c-1.01,1.016-2.234,1.523-3.674,1.523c-1.508,0-2.761-0.521-3.759-1.564s-1.497-2.282-1.497-3.717
	c0-0.961,0.232-1.845,0.697-2.651c0.465-0.806,1.104-1.444,1.917-1.916S52.901,85.749,53.84,85.749z"/>
<polygon fill-rule="evenodd" clip-rule="evenodd" fill="#AEADB3" points="64.854,86.001 66.758,86.001 66.758,94.232 69.572,94.232 
	69.572,96.053 64.854,96.053 "/>
<path fill-rule="evenodd" clip-rule="evenodd" fill="#AEADB3" d="M74.992,86.001h1.918v6.502c0,0.561,0.049,0.956,0.147,1.188
	c0.098,0.232,0.26,0.418,0.486,0.557c0.226,0.14,0.498,0.209,0.817,0.209c0.337,0,0.628-0.078,0.872-0.232
	c0.244-0.154,0.413-0.352,0.506-0.591c0.093-0.239,0.14-0.695,0.14-1.37v-6.263h1.918v5.992c0,1.011-0.057,1.713-0.17,2.104
	s-0.332,0.77-0.652,1.135c-0.321,0.364-0.691,0.634-1.11,0.81c-0.419,0.175-0.906,0.263-1.462,0.263
	c-0.729,0-1.363-0.167-1.902-0.502s-0.926-0.754-1.158-1.258c-0.232-0.503-0.349-1.354-0.349-2.552V86.001z"/>
<path fill-rule="evenodd" clip-rule="evenodd" fill="#AEADB3" d="M97.283,87.765l-1.341,1.274c-0.912-0.962-1.938-1.442-3.079-1.442
	c-0.962,0-1.773,0.328-2.432,0.984c-0.659,0.655-0.989,1.464-0.989,2.425c0,0.67,0.146,1.265,0.438,1.783
	c0.292,0.52,0.705,0.928,1.238,1.224c0.533,0.296,1.126,0.444,1.778,0.444c0.557,0,1.065-0.104,1.526-0.312
	c0.46-0.207,0.967-0.584,1.519-1.131l1.3,1.357c-0.743,0.727-1.445,1.23-2.106,1.511c-0.661,0.281-1.416,0.422-2.263,0.422
	c-1.564,0-2.844-0.495-3.839-1.486c-0.996-0.99-1.494-2.26-1.494-3.809c0-1.002,0.227-1.893,0.68-2.672
	c0.454-0.778,1.103-1.404,1.949-1.879c0.846-0.474,1.756-0.71,2.731-0.71c0.83,0,1.629,0.175,2.397,0.524
	S96.727,87.12,97.283,87.765z"/>
<rect x="102.841" y="86.001" fill-rule="evenodd" clip-rule="evenodd" fill="#AEADB3" width="1.904" height="10.052"/>
<path fill-rule="evenodd" clip-rule="evenodd" fill="#AEADB3" d="M115.63,87.625c-0.926,0-1.705,0.323-2.336,0.97
	c-0.631,0.647-0.947,1.469-0.947,2.467c0,1.111,0.397,1.99,1.192,2.637c0.617,0.506,1.326,0.759,2.125,0.759
	c0.904,0,1.673-0.328,2.309-0.984c0.636-0.655,0.954-1.464,0.954-2.425c0-0.957-0.32-1.767-0.96-2.429
	C117.326,87.956,116.547,87.625,115.63,87.625z M115.657,85.749c1.422,0,2.645,0.515,3.667,1.544
	c1.023,1.029,1.535,2.284,1.535,3.765c0,1.467-0.504,2.708-1.514,3.724c-1.009,1.016-2.234,1.523-3.674,1.523
	c-1.508,0-2.761-0.521-3.759-1.564c-0.998-1.043-1.497-2.282-1.497-3.717c0-0.961,0.232-1.845,0.697-2.651
	c0.464-0.806,1.104-1.444,1.917-1.916S114.719,85.749,115.657,85.749z"/>
<polygon fill-rule="evenodd" clip-rule="evenodd" fill="#AEADB3" points="126.7,86.001 128.516,86.001 132.846,92.615 
	132.846,86.001 134.75,86.001 134.75,96.053 132.921,96.053 128.604,89.459 128.604,96.053 126.7,96.053 "/>
<polygon fill-rule="evenodd" clip-rule="evenodd" fill="#AEADB3" points="141.074,86.001 146.563,86.001 146.563,87.877 
	142.978,87.877 142.978,89.683 146.563,89.683 146.563,91.531 142.978,91.531 142.978,94.177 146.563,94.177 146.563,96.053 
	141.074,96.053 "/>
<path fill-rule="evenodd" clip-rule="evenodd" fill="#AEADB3" d="M157.627,87.368l-1.418,1.251
	c-0.497-0.691-1.004-1.036-1.521-1.036c-0.251,0-0.456,0.067-0.616,0.201c-0.159,0.135-0.239,0.286-0.239,0.454
	c0,0.169,0.057,0.328,0.171,0.479c0.156,0.2,0.624,0.631,1.406,1.291c0.73,0.609,1.174,0.994,1.329,1.154
	c0.389,0.392,0.664,0.766,0.826,1.123s0.243,0.748,0.243,1.172c0,0.824-0.285,1.505-0.855,2.042
	c-0.571,0.537-1.315,0.806-2.232,0.806c-0.717,0-1.342-0.176-1.874-0.526s-0.987-0.901-1.366-1.653l1.612-0.971
	c0.485,0.887,1.043,1.33,1.674,1.33c0.329,0,0.606-0.096,0.83-0.286c0.225-0.191,0.336-0.412,0.336-0.663
	c0-0.228-0.084-0.455-0.253-0.683c-0.17-0.228-0.542-0.576-1.118-1.045c-1.097-0.893-1.805-1.582-2.125-2.066
	c-0.319-0.485-0.479-0.969-0.479-1.452c0-0.696,0.266-1.294,0.797-1.792c0.531-0.499,1.187-0.748,1.967-0.748
	c0.501,0,0.979,0.116,1.433,0.349C156.606,86.33,157.098,86.753,157.627,87.368z"/>
<polygon fill-rule="evenodd" clip-rule="evenodd" fill="#AEADB3" points="172.539,86.001 174.395,86.001 176.734,93.012 
	179.086,86.001 180.936,86.001 182.621,96.053 180.776,96.053 179.703,89.704 177.573,96.053 175.885,96.053 173.767,89.704 
	172.672,96.053 170.806,96.053 "/>
<path fill-rule="evenodd" clip-rule="evenodd" fill="#AEADB3" d="M191.909,82.543h2.204l-2.498,2.674h-1.338L191.909,82.543z
	 M188.136,86.001h1.918v6.502c0,0.561,0.049,0.956,0.146,1.188c0.099,0.232,0.261,0.418,0.486,0.557
	c0.226,0.14,0.498,0.209,0.817,0.209c0.337,0,0.627-0.078,0.871-0.232s0.413-0.352,0.506-0.591c0.094-0.239,0.141-0.695,0.141-1.37
	v-6.263h1.918v5.992c0,1.011-0.057,1.713-0.171,2.104c-0.113,0.392-0.331,0.77-0.652,1.135c-0.321,0.364-0.691,0.634-1.11,0.81
	c-0.419,0.175-0.906,0.263-1.462,0.263c-0.729,0-1.362-0.167-1.902-0.502s-0.926-0.754-1.157-1.258
	c-0.232-0.503-0.349-1.354-0.349-2.552V86.001z"/>
<polygon fill-rule="evenodd" clip-rule="evenodd" fill="#AEADB3" points="201.172,86.001 203.076,86.001 203.076,94.232 
	205.891,94.232 205.891,96.053 201.172,96.053 "/>
<polygon fill-rule="evenodd" clip-rule="evenodd" fill="#AEADB3" points="210.4,86.001 215.958,86.001 215.958,87.891 
	214.124,87.891 214.124,96.053 212.178,96.053 212.178,87.891 210.4,87.891 "/>
<rect x="221.135" y="86.001" fill-rule="evenodd" clip-rule="evenodd" fill="#AEADB3" width="1.904" height="10.052"/>
<path fill-rule="evenodd" clip-rule="evenodd" fill="#AEADB3" d="M231.104,89.935h0.613c0.482,0,0.817-0.034,1.006-0.103
	c0.188-0.069,0.337-0.183,0.444-0.341c0.108-0.159,0.162-0.351,0.162-0.575c0-0.39-0.151-0.675-0.454-0.854
	c-0.221-0.133-0.63-0.199-1.228-0.199h-0.544V89.935z M229.199,86.001h2.031c1.1,0,1.892,0.102,2.377,0.304
	c0.486,0.203,0.869,0.531,1.149,0.984s0.421,0.997,0.421,1.63c0,0.702-0.185,1.285-0.553,1.75s-0.867,0.788-1.498,0.971
	c-0.371,0.104-1.045,0.157-2.023,0.157v4.256h-1.904V86.001z"/>
<polygon fill-rule="evenodd" clip-rule="evenodd" fill="#AEADB3" points="241.052,86.001 242.956,86.001 242.956,94.232 
	245.77,94.232 245.77,96.053 241.052,96.053 "/>
<polygon fill-rule="evenodd" clip-rule="evenodd" fill="#AEADB3" points="251.273,86.001 256.762,86.001 256.762,87.877 
	253.178,87.877 253.178,89.683 256.762,89.683 256.762,91.531 253.178,91.531 253.178,94.177 256.762,94.177 256.762,96.053 
	251.273,96.053 "/>
<path fill-rule="evenodd" clip-rule="evenodd" fill="#AEADB3" d="M267.826,87.368l-1.418,1.251c-0.497-0.691-1.004-1.036-1.52-1.036
	c-0.251,0-0.457,0.067-0.616,0.201c-0.16,0.135-0.24,0.286-0.24,0.454c0,0.169,0.058,0.328,0.172,0.479
	c0.155,0.2,0.624,0.631,1.405,1.291c0.731,0.609,1.174,0.994,1.33,1.154c0.388,0.392,0.663,0.766,0.826,1.123
	c0.162,0.357,0.243,0.748,0.243,1.172c0,0.824-0.286,1.505-0.856,2.042s-1.314,0.806-2.232,0.806c-0.717,0-1.342-0.176-1.873-0.526
	c-0.532-0.351-0.987-0.901-1.366-1.653l1.612-0.971c0.484,0.887,1.042,1.33,1.674,1.33c0.329,0,0.605-0.096,0.83-0.286
	c0.224-0.191,0.336-0.412,0.336-0.663c0-0.228-0.085-0.455-0.254-0.683s-0.541-0.576-1.117-1.045
	c-1.098-0.893-1.806-1.582-2.125-2.066c-0.32-0.485-0.48-0.969-0.48-1.452c0-0.696,0.266-1.294,0.797-1.792
	c0.531-0.499,1.187-0.748,1.967-0.748c0.502,0,0.979,0.116,1.433,0.349S267.298,86.753,267.826,87.368z"/>
<polygon fill-rule="evenodd" clip-rule="evenodd" fill="#7FAD38" points="24.59,66.134 24.59,65.126 13.803,65.126 13.803,67.545 
	29.949,67.545 29.949,79.439 8.48,79.439 8.48,74.642 24.625,74.642 24.625,71.819 8.48,71.819 8.48,60.328 29.949,60.328 
	29.949,66.134 "/>
<path fill-rule="evenodd" clip-rule="evenodd" fill="#7FAD38" d="M47.184,71.819H33.048v-4.274h14.136V71.819z M33.048,60.328
	h20.164v4.798H33.048V60.328z M53.389,79.439h-20.34v-4.798h20.34V79.439z"/>
<path fill-rule="evenodd" clip-rule="evenodd" fill="#7FAD38" d="M72.202,68.23v-3.104H56.515v-4.798h16.533
	c1.387,0,2.538,0.537,3.455,1.612c0.917,1.075,1.375,2.339,1.375,3.79v1.774c0,1.317-0.294,2.365-0.881,3.146
	c-0.587,0.779-1.275,1.337-2.062,1.673s-1.475,0.504-2.063,0.504l8.46,6.612H72.66l-7.403-6.612H62.19v6.612h-5.675V68.23H72.202z"
	/>
<polygon fill-rule="evenodd" clip-rule="evenodd" fill="#7FAD38" points="88.83,79.439 77.938,60.328 84.036,60.328 91.228,73.312 
	98.242,60.328 104.306,60.328 93.448,79.439 "/>
<rect x="105.116" y="60.328" fill-rule="evenodd" clip-rule="evenodd" fill="#7FAD38" width="5.64" height="19.111"/>
<polygon fill-rule="evenodd" clip-rule="evenodd" fill="#7FAD38" points="129.438,66.658 129.438,65.126 119.356,65.126 
	119.356,74.642 129.473,74.642 129.473,72.142 135.148,72.142 135.148,79.439 113.681,79.439 113.681,60.328 135.113,60.328 
	135.113,66.658 "/>
<rect x="138.072" y="60.328" fill-rule="evenodd" clip-rule="evenodd" fill="#7FAD38" width="5.64" height="19.111"/>
<polygon fill-rule="evenodd" clip-rule="evenodd" fill="#7FAD38" points="165.002,65.126 146.636,65.126 146.636,60.328 
	170.678,60.328 170.678,79.439 146.636,79.439 146.636,68.433 152.312,68.433 152.312,74.642 165.002,74.642 "/>
<polygon fill-rule="evenodd" clip-rule="evenodd" fill="#7FAD38" points="189.861,66.134 189.861,65.126 179.074,65.126 
	179.074,67.545 195.22,67.545 195.22,79.439 173.752,79.439 173.752,74.642 189.896,74.642 189.896,71.819 173.752,71.819 
	173.752,60.328 195.22,60.328 195.22,66.134 "/>
<polygon fill-rule="evenodd" clip-rule="evenodd" fill="#D68500" points="213.23,65.126 203.502,65.126 203.502,66.134 
	198.319,66.134 198.319,60.328 218.378,60.328 218.378,67.545 216.65,69.602 218.378,71.819 218.378,79.439 198.319,79.439 
	198.319,74.642 213.23,74.642 213.23,71.819 206.216,71.819 206.216,67.545 213.23,67.545 "/>
<path fill-rule="evenodd" clip-rule="evenodd" fill="#D68500" d="M237.197,68.23v-3.104h-15.687v-4.798h16.532
	c1.387,0,2.538,0.537,3.455,1.612c0.916,1.075,1.375,2.339,1.375,3.79v1.774c0,1.317-0.294,2.365-0.882,3.146
	c-0.587,0.779-1.274,1.337-2.062,1.673s-1.475,0.504-2.063,0.504l8.46,6.612h-8.672l-7.402-6.612h-3.067v6.612h-5.675V68.23H237.197
	z"/>
<polygon fill-rule="evenodd" clip-rule="evenodd" fill="#D68500" points="266.234,65.126 247.868,65.126 247.868,60.328 
	271.91,60.328 271.91,79.439 247.868,79.439 247.868,68.433 253.544,68.433 253.544,74.642 266.234,74.642 "/>
<polygon fill-rule="evenodd" clip-rule="evenodd" fill="#D68500" points="291.094,66.134 291.094,65.126 280.307,65.126 
	280.307,67.545 296.452,67.545 296.452,79.439 274.983,79.439 274.983,74.642 291.129,74.642 291.129,71.819 274.983,71.819 
	274.983,60.328 296.452,60.328 296.452,66.134 "/>
</svg>
