<?xml version="1.0" standalone="no"?>
<!DOCTYPE svg PUBLIC "-//W3C//DTD SVG 20010904//EN"
 "http://www.w3.org/TR/2001/REC-SVG-20010904/DTD/svg10.dtd">
<svg version="1.0" xmlns="http://www.w3.org/2000/svg"
 width="512.000000pt" height="512.000000pt" viewBox="0 0 512.000000 512.000000"
 preserveAspectRatio="xMidYMid meet">
<metadata>
Created by potrace 1.11, written by Peter Selinger 2001-2013
</metadata>
<g transform="translate(0.000000,512.000000) scale(0.100000,-0.100000)"
fill="#000000" stroke="none">
<path d="M700 4883 c-83 -29 -142 -82 -183 -163 -18 -36 -22 -62 -22 -130 0
-103 17 -142 90 -216 57 -58 122 -85 207 -86 268 -5 408 323 221 515 -79 82
-209 115 -313 80z"/>
<path d="M4300 4891 c-175 -38 -279 -222 -224 -397 25 -80 106 -163 184 -189
155 -52 304 10 383 159 32 60 31 192 -1 257 -62 126 -210 199 -342 170z"/>
<path d="M2528 4149 c-215 -32 -326 -300 -198 -477 173 -240 549 -123 553 172
2 193 -161 333 -355 305z"/>
<path d="M70 4069 c-16 -10 -39 -33 -50 -51 -20 -32 -20 -48 -18 -753 3 -803
-1 -754 73 -789 67 -32 143 -8 177 55 17 32 18 75 18 744 0 686 -1 711 -20
742 -10 18 -30 39 -43 48 -37 24 -101 26 -137 4z"/>
<path d="M526 4079 c-34 -10 -63 -35 -82 -71 -22 -42 -21 -2926 1 -2968 49
-95 190 -95 237 0 17 33 18 124 18 1483 0 1212 -2 1453 -14 1481 -25 60 -95
93 -160 75z"/>
<path d="M928 4070 c-18 -9 -42 -29 -53 -44 -20 -27 -20 -37 -22 -1489 l-1
-1462 21 -38 c52 -92 164 -94 231 -4 20 28 20 35 20 1490 0 1405 0 1463 -18
1493 -37 62 -118 86 -178 54z"/>
<path d="M1360 4072 c-56 -28 -80 -74 -80 -151 -4 -670 1 -1351 10 -1375 35
-94 166 -112 230 -33 l25 31 3 721 c2 700 2 721 -17 752 -38 62 -111 85 -171
55z"/>
<path d="M3648 4071 c-18 -9 -43 -31 -55 -50 l-23 -35 2 -720 c3 -703 3 -722
23 -748 60 -82 187 -71 230 18 15 32 16 104 16 740 0 662 -1 707 -18 736 -39
66 -112 91 -175 59z"/>
<path d="M4083 4075 c-17 -7 -43 -29 -58 -49 l-27 -35 0 -1459 c0 -1311 2
-1462 16 -1490 52 -100 200 -98 242 4 12 28 14 270 14 1486 0 1423 0 1454 -20
1485 -36 59 -106 84 -167 58z"/>
<path d="M4522 4082 c-34 -5 -89 -65 -95 -104 -3 -18 -5 -683 -4 -1478 2
-1401 3 -1446 21 -1473 24 -36 69 -59 118 -60 41 -1 78 21 112 66 20 27 20 41
20 1490 0 1400 -1 1464 -18 1493 -31 51 -90 77 -154 66z"/>
<path d="M4946 4079 c-15 -4 -37 -16 -48 -26 -49 -44 -48 -25 -48 -783 l0
-710 23 -35 c51 -80 157 -85 217 -12 l25 31 3 721 c2 700 2 721 -17 752 -35
57 -92 80 -155 62z"/>
<path d="M1865 3331 c-30 -13 -64 -54 -73 -87 -5 -16 -8 -344 -7 -729 0 -673
1 -701 20 -732 35 -59 126 -81 186 -46 16 10 38 36 48 58 17 38 18 79 17 745
-1 503 -5 711 -13 725 -25 44 -62 68 -110 71 -26 2 -57 0 -68 -5z"/>
<path d="M2300 3333 c-23 -8 -61 -45 -74 -73 -10 -20 -13 -337 -12 -1486 l1
-1461 28 -36 c35 -47 93 -65 149 -46 21 6 44 19 52 28 44 48 43 11 42 1537
l-1 1451 -29 37 c-15 20 -39 41 -53 47 -26 10 -79 11 -103 2z"/>
<path d="M2703 3320 c-18 -10 -40 -34 -49 -52 -16 -31 -17 -136 -17 -1489 0
-1366 1 -1457 17 -1485 26 -43 61 -65 111 -69 54 -4 102 24 128 75 16 33 17
120 15 1495 -3 1354 -4 1462 -20 1484 -43 60 -124 79 -185 41z"/>
<path d="M3133 3324 c-18 -9 -40 -33 -50 -53 -18 -36 -19 -76 -18 -747 0 -684
1 -710 20 -741 36 -61 132 -84 184 -45 14 10 34 31 45 46 20 27 21 38 21 724
1 383 -2 712 -6 731 -4 19 -21 48 -37 64 -37 37 -109 47 -159 21z"/>
</g>
</svg>
